<svg xmlns="http://www.w3.org/2000/svg" viewBox="0 0 640 400" width="640" height="400">
<defs>
<linearGradient id="bganalytics" x1="0" y1="0" x2="1" y2="1"><stop offset="0" stop-color="#0b1f33"/><stop offset="1" stop-color="#12314f"/></linearGradient>
<radialGradient id="glanalytics" cx=".5" cy=".55" r=".5"><stop offset="0" stop-color="#0099ff" stop-opacity=".45"/><stop offset="1" stop-color="#0099ff" stop-opacity="0"/></radialGradient>
<pattern id="granalytics" width="32" height="32" patternUnits="userSpaceOnUse"><path d="M32 0H0V32" fill="none" stroke="#38bdf8" stroke-opacity=".12"/></pattern>
</defs>
<rect width="640" height="400" fill="url(#bganalytics)"/><rect width="640" height="400" fill="url(#granalytics)"/><ellipse cx="320" cy="290" rx="300" ry="120" fill="url(#glanalytics)"/>
<polygon points="302.7,130.0 510.5,250.0 337.3,350.0 129.5,230.0" fill="#6b7e92" />
<polygon points="510.5,264.0 337.3,364.0 337.3,350.0 510.5,250.0" fill="#192c41" />
<polygon points="129.5,244.0 337.3,364.0 337.3,350.0 129.5,230.0" fill="#25415f" />
<polygon points="250.7,140.0 271.5,152.0 245.5,167.0 224.7,155.0" fill="#78d2fa" />
<polygon points="271.5,192.0 245.5,207.0 245.5,167.0 271.5,152.0" fill="#2681a9" />
<polygon points="224.7,195.0 245.5,207.0 245.5,167.0 224.7,155.0" fill="#38bdf8" />
<polygon points="280.2,127.0 300.9,139.0 275.0,154.0 254.2,142.0" fill="#52baff" />
<polygon points="300.9,209.0 275.0,224.0 275.0,154.0 300.9,139.0" fill="#0068ad" />
<polygon points="254.2,212.0 275.0,224.0 275.0,154.0 254.2,142.0" fill="#0099ff" />
<polygon points="309.6,159.0 330.4,171.0 304.4,186.0 283.6,174.0" fill="#78d2fa" />
<polygon points="330.4,226.0 304.4,241.0 304.4,186.0 330.4,171.0" fill="#2681a9" />
<polygon points="283.6,229.0 304.4,241.0 304.4,186.0 283.6,174.0" fill="#38bdf8" />
<polygon points="339.1,126.0 359.8,138.0 333.9,153.0 313.1,141.0" fill="#52baff" />
<polygon points="359.8,243.0 333.9,258.0 333.9,153.0 359.8,138.0" fill="#0068ad" />
<polygon points="313.1,246.0 333.9,258.0 333.9,153.0 313.1,141.0" fill="#0099ff" />
<polygon points="368.5,163.0 389.3,175.0 363.3,190.0 342.5,178.0" fill="#78d2fa" />
<polygon points="389.3,260.0 363.3,275.0 363.3,190.0 389.3,175.0" fill="#2681a9" />
<polygon points="342.5,263.0 363.3,275.0 363.3,190.0 342.5,178.0" fill="#38bdf8" />
<polygon points="397.9,130.0 418.7,142.0 392.7,157.0 372.0,145.0" fill="#52baff" />
<polygon points="418.7,277.0 392.7,292.0 392.7,157.0 418.7,142.0" fill="#0068ad" />
<polygon points="372.0,280.0 392.7,292.0 392.7,157.0 372.0,145.0" fill="#0099ff" />
<polyline points="248.1,123.5 277.6,110.5 307.0,142.5 336.5,109.5 365.9,146.5 395.3,113.5" fill="none" stroke="#fff" stroke-width="4" stroke-linejoin="round"/>
<circle cx="248.11989148589157" cy="123.5" r="6" fill="#0b1f33" stroke="#fff" stroke-width="3"/>
<circle cx="277.5647552145625" cy="110.5" r="6" fill="#0b1f33" stroke="#fff" stroke-width="3"/>
<circle cx="307.0096189432334" cy="142.5" r="6" fill="#0b1f33" stroke="#fff" stroke-width="3"/>
<circle cx="336.4544826719043" cy="109.5" r="6" fill="#0b1f33" stroke="#fff" stroke-width="3"/>
<circle cx="365.89934640057527" cy="146.5" r="6" fill="#0b1f33" stroke="#fff" stroke-width="3"/>
<circle cx="395.34421012924616" cy="113.5" r="6" fill="#0b1f33" stroke="#fff" stroke-width="3"/>
</svg>